<svg version="1.1" id="Controls" xmlns="http://www.w3.org/2000/svg" x="0" y="0" viewBox="0 0 128 128" style="enable-background:new 0 0 128 128" xml:space="preserve">
  <style>.st0{display:none;fill:#ffffff}</style>
  <g id="row3">
    <path id="_x32__2_" d="M72.4 22.5v82.9c0 6.8-7.5 11-13.3 7.4l-41.6-29v2.9H0V45.1h17.5V48l41.3-32.7c5.7-4 13.6.2 13.6 7.2zm10 87.1v-6.4c21.6 0 39.2-17.6 39.2-39.2S104 24.8 82.4 24.8v-6.4c25.1 0 45.6 20.5 45.6 45.6s-20.5 45.6-45.6 45.6zm0-14v-6.4c13.9 0 25.3-11.3 25.3-25.3S96.3 38.7 82.4 38.7v-6.4C99.9 32.4 114 46.6 114 64S99.9 95.6 82.4 95.6zm0-13.2V76c6.6 0 12-5.4 12-12s-5.4-12-12-12v-6.4c10.1 0 18.4 8.2 18.4 18.4s-8.3 18.4-18.4 18.4z" style="fill:#ffffff"/>
  </g>
</svg>
