<svg xmlns="http://www.w3.org/2000/svg"
     width="32" height="32" viewBox="0 0 32 32"
     aria-label="No Lyrics (ban sign)" fill="none" stroke="white" stroke-linecap="round" stroke-linejoin="round">

  <!-- outer ban circle -->
  <circle cx="16" cy="16" r="14" stroke="white" stroke-width="2.2" fill="none"/>

  <!-- diagonal ban bar (top-right to bottom-left) -->
  <line x1="24.5" y1="7.5" x2="7.5" y2="24.5" stroke="white" stroke-width="2.6"/>

  <!-- lyrics/music base (kept subtle so ban bar is prominent) -->
  <g transform="translate(0,0)" stroke="white" stroke-width="1.4" fill="none">
    <!-- music-note-ish / tail -->
    <path d="M18.0 23.9c-1.105 0-2.002 0.897-2.002 2.002c0 1.105 0.897 2.002 2.002 2.002
             c1.104 0 2.001-0.897 2.001-2.002v-7.12l6.001-0.75v3.87c-1.105 0-2.002 0.897-2.002 2.002
             c0 1.104 0.897 2.001 2.002 2.001" />
    <!-- page/frame outline -->
    <path d="M27 12.99V6.96c0-0.53-0.211-1.04-0.586-1.414c-0.375-0.375-0.884-0.586-1.414-0.586H7
             c-0.53 0-1.039 0.211-1.414 0.586C5.211 5.92 5 6.43 5 6.96v18c0 0.531 0.211 1.04 0.586 1.415
             c0.375 0.375 0.884 0.585 1.414 0.585h6"/>
    <!-- text lines -->
    <path d="M9 9h14" />
    <path d="M9 13h14" />
    <path d="M9 17h6" />
    <path d="M9 21h6" />
  </g>
</svg>
